<svg xmlns="http://www.w3.org/2000/svg" xmlns:xlink="http://www.w3.org/1999/xlink" width="45" zoomAndPan="magnify" viewBox="0 0 33.75 33.749998" height="45" preserveAspectRatio="xMidYMid meet" version="1.0"><defs><g/><clipPath id="570b89077f"><path d="M 12 7.261719 L 22 7.261719 L 22 14 L 12 14 Z M 12 7.261719 " clip-rule="nonzero"/></clipPath><clipPath id="accdd76b66"><path d="M 17 20 L 26.710938 20 L 26.710938 29.730469 L 17 29.730469 Z M 17 20 " clip-rule="nonzero"/></clipPath><clipPath id="1288a3ea84"><path d="M 21 7.261719 L 26.710938 7.261719 L 26.710938 21 L 21 21 Z M 21 7.261719 " clip-rule="nonzero"/></clipPath><clipPath id="af7bff3fda"><path d="M 18 24 L 26.710938 24 L 26.710938 29.730469 L 18 29.730469 Z M 18 24 " clip-rule="nonzero"/></clipPath><clipPath id="f7736ab709"><path d="M 5.972656 7.261719 L 12 7.261719 L 12 21 L 5.972656 21 Z M 5.972656 7.261719 " clip-rule="nonzero"/></clipPath><clipPath id="11819b2c52"><path d="M 5.972656 24 L 15 24 L 15 29.730469 L 5.972656 29.730469 Z M 5.972656 24 " clip-rule="nonzero"/></clipPath><clipPath id="48c973d54d"><path d="M 5.972656 20 L 17 20 L 17 29.730469 L 5.972656 29.730469 Z M 5.972656 20 " clip-rule="nonzero"/></clipPath></defs><path fill="#ecede8" d="M 8.222656 20.402344 C 8.742188 20.5 9.25 20.632812 9.746094 20.796875 L 14.3125 14.003906 C 13.976562 13.839844 13.660156 13.644531 13.367188 13.421875 L 8.222656 15.96875 Z M 8.222656 20.402344 " fill-opacity="1" fill-rule="nonzero"/><g clip-path="url(#570b89077f)"><path fill="#ecede8" d="M 16.625 13.785156 C 19.164062 13.785156 21.230469 11.71875 21.230469 9.179688 C 21.230469 8.523438 21.089844 7.890625 20.824219 7.304688 L 12.425781 7.304688 C 12.160156 7.890625 12.019531 8.523438 12.019531 9.179688 C 12.019531 11.71875 14.085938 13.785156 16.625 13.785156 Z M 16.625 13.785156 " fill-opacity="1" fill-rule="nonzero"/></g><path fill="#ecede8" d="M 8.222656 12.039062 L 8.222656 15.132812 L 12.765625 12.882812 C 12.519531 12.625 12.296875 12.34375 12.105469 12.042969 L 8.222656 12.042969 Z M 8.222656 12.039062 " fill-opacity="1" fill-rule="nonzero"/><path fill="#ecede8" d="M 12.878906 22.335938 C 12.933594 22.074219 12.996094 21.820312 13.070312 21.570312 C 13.679688 19.320312 14.753906 17.5 16.25 16.132812 L 16.25 14.515625 C 15.824219 14.484375 15.414062 14.410156 15.023438 14.292969 L 10.476562 21.058594 C 11.34375 21.402344 12.144531 21.835938 12.878906 22.335938 Z M 12.878906 22.335938 " fill-opacity="1" fill-rule="nonzero"/><path fill="#ecede8" d="M 8.222656 9.554688 L 8.222656 11.289062 L 11.703125 11.289062 C 11.472656 10.75 11.328125 10.164062 11.289062 9.554688 Z M 8.222656 9.554688 " fill-opacity="1" fill-rule="nonzero"/><path fill="#ecede8" d="M 23.503906 20.796875 C 24 20.632812 24.507812 20.5 25.03125 20.398438 L 25.03125 15.96875 L 19.882812 13.421875 C 19.589844 13.644531 19.273438 13.839844 18.9375 14.003906 Z M 23.503906 20.796875 " fill-opacity="1" fill-rule="nonzero"/><path fill="#ecede8" d="M 25.03125 9.554688 L 21.960938 9.554688 C 21.921875 10.164062 21.777344 10.753906 21.546875 11.289062 L 25.03125 11.289062 Z M 25.03125 9.554688 " fill-opacity="1" fill-rule="nonzero"/><path fill="#ecede8" d="M 17 14.515625 L 17 16.128906 C 18.496094 17.496094 19.570312 19.316406 20.183594 21.570312 C 20.257812 21.824219 20.320312 22.078125 20.375 22.339844 C 21.109375 21.839844 21.914062 21.40625 22.777344 21.0625 L 18.230469 14.292969 C 17.835938 14.414062 17.425781 14.488281 17 14.519531 Z M 17 14.515625 " fill-opacity="1" fill-rule="nonzero"/><path fill="#ecede8" d="M 25.03125 12.039062 L 21.144531 12.039062 C 20.953125 12.339844 20.730469 12.625 20.484375 12.878906 L 25.03125 15.132812 Z M 25.03125 12.039062 " fill-opacity="1" fill-rule="nonzero"/><g clip-path="url(#accdd76b66)"><path fill="#ecede8" d="M 25.46875 21.082031 C 23.601562 21.402344 21.90625 22.128906 20.535156 23.148438 C 20.300781 23.320312 20.074219 23.5 19.863281 23.691406 C 18.652344 24.753906 17.765625 26.0625 17.324219 27.511719 C 17.15625 28.039062 17.058594 28.582031 17.019531 29.128906 C 17.015625 29.183594 17.011719 29.230469 17.011719 29.28125 L 17.769531 29.28125 C 18.085938 28.527344 18.566406 27.804688 19.207031 27.144531 C 19.46875 26.871094 19.753906 26.613281 20.0625 26.375 C 20.058594 26.0625 20.050781 25.753906 20.035156 25.453125 C 20.019531 25.167969 19.996094 24.886719 19.972656 24.609375 C 20.183594 24.394531 20.417969 24.191406 20.65625 23.996094 C 20.699219 24.316406 20.730469 24.644531 20.753906 24.980469 C 20.777344 25.261719 20.792969 25.550781 20.800781 25.839844 C 22.078125 25 23.636719 24.390625 25.335938 24.0625 C 25.96875 23.9375 26.621094 23.859375 27.28125 23.824219 L 27.28125 20.898438 C 26.675781 20.910156 26.074219 20.976562 25.480469 21.078125 C 25.476562 21.078125 25.472656 21.078125 25.46875 21.078125 Z M 25.46875 21.082031 " fill-opacity="1" fill-rule="nonzero"/></g><g clip-path="url(#1288a3ea84)"><path fill="#ecede8" d="M 21.957031 8.804688 L 25.40625 8.804688 C 25.613281 8.804688 25.78125 8.972656 25.78125 9.179688 L 25.78125 20.269531 C 26.277344 20.199219 26.777344 20.15625 27.28125 20.144531 L 27.28125 7.304688 L 21.640625 7.304688 C 21.820312 7.78125 21.925781 8.289062 21.957031 8.804688 Z M 21.957031 8.804688 " fill-opacity="1" fill-rule="nonzero"/></g><g clip-path="url(#af7bff3fda)"><path fill="#ecede8" d="M 20.8125 26.746094 C 20.539062 26.941406 20.28125 27.148438 20.046875 27.371094 C 19.941406 27.46875 19.84375 27.566406 19.746094 27.664062 C 19.253906 28.171875 18.867188 28.714844 18.59375 29.28125 L 19.894531 29.28125 C 19.921875 29.058594 19.949219 28.8125 19.976562 28.539062 C 20.070312 28.417969 20.175781 28.300781 20.285156 28.183594 C 20.441406 28.023438 20.609375 27.867188 20.78125 27.714844 C 20.75 28.316406 20.703125 28.847656 20.652344 29.28125 L 27.28125 29.28125 L 27.28125 24.578125 C 26.671875 24.609375 26.066406 24.683594 25.476562 24.796875 C 23.683594 25.144531 22.074219 25.816406 20.8125 26.746094 Z M 20.8125 26.746094 " fill-opacity="1" fill-rule="nonzero"/></g><g clip-path="url(#f7736ab709)"><path fill="#ecede8" d="M 7.472656 20.273438 L 7.472656 15.765625 C 7.472656 15.765625 7.472656 15.753906 7.472656 15.75 L 7.472656 11.675781 C 7.472656 11.675781 7.472656 11.667969 7.472656 11.667969 C 7.472656 11.667969 7.472656 11.660156 7.472656 11.660156 L 7.472656 9.183594 C 7.472656 8.976562 7.640625 8.808594 7.847656 8.808594 L 11.289062 8.808594 C 11.328125 8.292969 11.429688 7.785156 11.609375 7.304688 L 5.972656 7.304688 L 5.972656 20.148438 C 6.476562 20.160156 6.976562 20.203125 7.472656 20.277344 Z M 7.472656 20.273438 " fill-opacity="1" fill-rule="nonzero"/></g><g clip-path="url(#11819b2c52)"><path fill="#ecede8" d="M 13.207031 27.375 C 12.972656 27.152344 12.714844 26.941406 12.441406 26.746094 C 11.183594 25.816406 9.570312 25.144531 7.777344 24.796875 C 7.1875 24.683594 6.582031 24.609375 5.972656 24.578125 L 5.972656 29.28125 L 12.601562 29.28125 C 12.550781 28.847656 12.503906 28.320312 12.472656 27.71875 C 12.644531 27.871094 12.808594 28.023438 12.964844 28.183594 C 13.078125 28.300781 13.179688 28.417969 13.277344 28.539062 C 13.304688 28.8125 13.332031 29.058594 13.355469 29.28125 L 14.65625 29.28125 C 14.382812 28.714844 13.996094 28.171875 13.503906 27.664062 C 13.410156 27.566406 13.3125 27.46875 13.207031 27.375 Z M 13.207031 27.375 " fill-opacity="1" fill-rule="nonzero"/></g><path fill="#ecede8" d="M 19.714844 22.835938 C 19.664062 22.558594 19.597656 22.289062 19.53125 22.027344 C 18.980469 19.863281 18.007812 18.105469 16.628906 16.796875 C 15.25 18.105469 14.273438 19.863281 13.722656 22.03125 C 13.652344 22.296875 13.589844 22.5625 13.539062 22.835938 C 15.003906 24.023438 16.09375 25.535156 16.625 27.230469 C 17.15625 25.535156 18.25 24.023438 19.714844 22.835938 Z M 19.714844 22.835938 " fill-opacity="1" fill-rule="nonzero"/><g clip-path="url(#48c973d54d)"><path fill="#ecede8" d="M 15.929688 27.511719 C 15.484375 26.066406 14.597656 24.757812 13.390625 23.695312 C 13.179688 23.503906 12.957031 23.320312 12.71875 23.152344 C 11.34375 22.128906 9.648438 21.402344 7.785156 21.082031 C 7.78125 21.082031 7.777344 21.082031 7.773438 21.082031 C 7.179688 20.980469 6.574219 20.914062 5.972656 20.898438 L 5.972656 23.828125 C 6.628906 23.863281 7.28125 23.941406 7.917969 24.066406 C 9.621094 24.394531 11.175781 25.007812 12.453125 25.84375 C 12.460938 25.554688 12.476562 25.265625 12.5 24.984375 C 12.519531 24.652344 12.554688 24.320312 12.597656 24 C 12.835938 24.195312 13.066406 24.398438 13.28125 24.613281 C 13.257812 24.890625 13.234375 25.171875 13.21875 25.460938 C 13.203125 25.761719 13.195312 26.070312 13.191406 26.378906 C 13.496094 26.621094 13.78125 26.878906 14.042969 27.148438 C 14.6875 27.808594 15.164062 28.53125 15.480469 29.285156 L 16.242188 29.285156 C 16.238281 29.238281 16.234375 29.195312 16.234375 29.148438 C 16.199219 28.597656 16.09375 28.050781 15.929688 27.515625 Z M 15.929688 27.511719 " fill-opacity="1" fill-rule="nonzero"/></g><g fill="#ecede8" fill-opacity="1"><g transform="translate(6.579794, 5.59296)"><g><path d="M 0.09375 -4.765625 L 3.203125 -4.765625 L 3.203125 -3.765625 L 3.15625 -3.765625 L 2.84375 -4.671875 C 2.695312 -4.671875 2.546875 -4.671875 2.390625 -4.671875 C 2.242188 -4.671875 2.097656 -4.671875 1.953125 -4.671875 C 1.847656 -4.671875 1.722656 -4.664062 1.578125 -4.65625 C 1.441406 -4.65625 1.304688 -4.644531 1.171875 -4.625 C 1.035156 -4.613281 0.914062 -4.597656 0.8125 -4.578125 L 0.8125 -3.109375 L 2.265625 -3.109375 L 2.5 -3.765625 L 2.515625 -3.765625 L 2.515625 -2.359375 L 2.5 -2.359375 L 2.265625 -3.015625 L 0.8125 -3.015625 L 0.8125 -0.1875 L 1.15625 -0.015625 L 1.15625 0 L 0.09375 0 L 0.09375 -0.015625 L 0.4375 -0.1875 L 0.4375 -4.578125 L 0.09375 -4.75 Z M 0.09375 -4.765625 "/></g></g></g><g fill="#ecede8" fill-opacity="1"><g transform="translate(9.971206, 5.59296)"><g><path d="M 0.09375 -4.765625 L 1.15625 -4.765625 L 1.15625 -4.75 L 0.8125 -4.578125 L 0.8125 -1.046875 C 0.8125 -0.773438 0.863281 -0.5625 0.96875 -0.40625 C 1.070312 -0.257812 1.210938 -0.15625 1.390625 -0.09375 C 1.566406 -0.03125 1.773438 0 2.015625 0 C 2.253906 0 2.460938 -0.03125 2.640625 -0.09375 C 2.828125 -0.15625 2.96875 -0.257812 3.0625 -0.40625 C 3.164062 -0.5625 3.21875 -0.773438 3.21875 -1.046875 L 3.21875 -4.578125 L 2.875 -4.75 L 2.875 -4.765625 L 3.953125 -4.765625 L 3.953125 -4.75 L 3.609375 -4.578125 L 3.609375 -1.296875 C 3.609375 -1.128906 3.582031 -0.960938 3.53125 -0.796875 C 3.488281 -0.640625 3.410156 -0.492188 3.296875 -0.359375 C 3.179688 -0.222656 3.019531 -0.113281 2.8125 -0.03125 C 2.601562 0.0507812 2.335938 0.09375 2.015625 0.09375 C 1.691406 0.09375 1.425781 0.0507812 1.21875 -0.03125 C 1.019531 -0.113281 0.863281 -0.222656 0.75 -0.359375 C 0.632812 -0.492188 0.550781 -0.640625 0.5 -0.796875 C 0.457031 -0.960938 0.4375 -1.128906 0.4375 -1.296875 L 0.4375 -4.578125 L 0.09375 -4.75 Z M 0.09375 -4.765625 "/></g></g></g><g fill="#ecede8" fill-opacity="1"><g transform="translate(14.016097, 5.59296)"><g><path d="M 0.09375 -3.640625 C 0.09375 -3.859375 0.148438 -4.0625 0.265625 -4.25 C 0.378906 -4.4375 0.554688 -4.582031 0.796875 -4.6875 C 1.046875 -4.800781 1.367188 -4.859375 1.765625 -4.859375 C 1.890625 -4.859375 2.019531 -4.847656 2.15625 -4.828125 C 2.300781 -4.816406 2.4375 -4.789062 2.5625 -4.75 C 2.6875 -4.707031 2.789062 -4.65625 2.875 -4.59375 L 3.03125 -4.859375 L 3.046875 -4.859375 L 3.046875 -3.75 L 3.03125 -3.75 C 2.945312 -4.0625 2.789062 -4.304688 2.5625 -4.484375 C 2.34375 -4.671875 2.054688 -4.765625 1.703125 -4.765625 C 1.410156 -4.765625 1.171875 -4.71875 0.984375 -4.625 C 0.796875 -4.539062 0.65625 -4.421875 0.5625 -4.265625 C 0.476562 -4.109375 0.4375 -3.9375 0.4375 -3.75 C 0.4375 -3.582031 0.472656 -3.441406 0.546875 -3.328125 C 0.628906 -3.210938 0.738281 -3.109375 0.875 -3.015625 C 1.007812 -2.929688 1.160156 -2.859375 1.328125 -2.796875 C 1.492188 -2.734375 1.664062 -2.671875 1.84375 -2.609375 C 2.03125 -2.546875 2.207031 -2.472656 2.375 -2.390625 C 2.539062 -2.316406 2.691406 -2.226562 2.828125 -2.125 C 2.960938 -2.03125 3.066406 -1.90625 3.140625 -1.75 C 3.222656 -1.601562 3.265625 -1.425781 3.265625 -1.21875 C 3.265625 -1.019531 3.21875 -0.835938 3.125 -0.671875 C 3.039062 -0.503906 2.925781 -0.363281 2.78125 -0.25 C 2.632812 -0.132812 2.46875 -0.0507812 2.28125 0 C 2.09375 0.0625 1.898438 0.09375 1.703125 0.09375 C 1.429688 0.09375 1.191406 0.0625 0.984375 0 C 0.773438 -0.0625 0.5625 -0.164062 0.34375 -0.3125 L 0.15625 0.09375 L 0.140625 0.09375 L 0.140625 -1.203125 L 0.15625 -1.203125 L 0.359375 -0.59375 C 0.515625 -0.414062 0.691406 -0.269531 0.890625 -0.15625 C 1.097656 -0.0507812 1.335938 0 1.609375 0 C 1.765625 0 1.914062 -0.0234375 2.0625 -0.078125 C 2.21875 -0.128906 2.359375 -0.203125 2.484375 -0.296875 C 2.609375 -0.398438 2.707031 -0.515625 2.78125 -0.640625 C 2.851562 -0.773438 2.890625 -0.925781 2.890625 -1.09375 C 2.890625 -1.28125 2.847656 -1.4375 2.765625 -1.5625 C 2.691406 -1.6875 2.585938 -1.789062 2.453125 -1.875 C 2.316406 -1.96875 2.164062 -2.046875 2 -2.109375 C 1.832031 -2.171875 1.660156 -2.226562 1.484375 -2.28125 C 1.304688 -2.34375 1.132812 -2.410156 0.96875 -2.484375 C 0.8125 -2.554688 0.664062 -2.640625 0.53125 -2.734375 C 0.394531 -2.835938 0.285156 -2.960938 0.203125 -3.109375 C 0.128906 -3.253906 0.09375 -3.429688 0.09375 -3.640625 Z M 0.09375 -3.640625 "/></g></g></g><g fill="#ecede8" fill-opacity="1"><g transform="translate(17.521989, 5.59296)"><g><path d="M 1.15625 0 L 0.09375 0 L 0.09375 -0.015625 L 0.4375 -0.1875 L 0.4375 -4.578125 L 0.09375 -4.75 L 0.09375 -4.765625 L 1.15625 -4.765625 L 1.15625 -4.75 L 0.8125 -4.578125 L 0.8125 -0.1875 L 1.15625 -0.015625 Z M 1.15625 0 "/></g></g></g><g fill="#ecede8" fill-opacity="1"><g transform="translate(18.781251, 5.59296)"><g><path d="M 2.125 0.09375 C 1.84375 0.09375 1.582031 0.0351562 1.34375 -0.078125 C 1.113281 -0.191406 0.914062 -0.359375 0.75 -0.578125 C 0.582031 -0.804688 0.453125 -1.070312 0.359375 -1.375 C 0.273438 -1.675781 0.234375 -2.007812 0.234375 -2.375 C 0.234375 -2.75 0.273438 -3.085938 0.359375 -3.390625 C 0.453125 -3.691406 0.582031 -3.953125 0.75 -4.171875 C 0.914062 -4.398438 1.113281 -4.570312 1.34375 -4.6875 C 1.582031 -4.800781 1.84375 -4.859375 2.125 -4.859375 C 2.40625 -4.859375 2.660156 -4.800781 2.890625 -4.6875 C 3.117188 -4.570312 3.316406 -4.398438 3.484375 -4.171875 C 3.648438 -3.953125 3.773438 -3.691406 3.859375 -3.390625 C 3.953125 -3.085938 4 -2.75 4 -2.375 C 4 -2.007812 3.953125 -1.675781 3.859375 -1.375 C 3.773438 -1.070312 3.648438 -0.804688 3.484375 -0.578125 C 3.316406 -0.359375 3.117188 -0.191406 2.890625 -0.078125 C 2.660156 0.0351562 2.40625 0.09375 2.125 0.09375 Z M 0.640625 -2.375 C 0.640625 -1.90625 0.695312 -1.488281 0.8125 -1.125 C 0.9375 -0.769531 1.109375 -0.492188 1.328125 -0.296875 C 1.546875 -0.0976562 1.8125 0 2.125 0 C 2.425781 0 2.6875 -0.0976562 2.90625 -0.296875 C 3.132812 -0.492188 3.304688 -0.769531 3.421875 -1.125 C 3.546875 -1.488281 3.609375 -1.90625 3.609375 -2.375 C 3.609375 -2.851562 3.546875 -3.269531 3.421875 -3.625 C 3.304688 -3.988281 3.132812 -4.269531 2.90625 -4.46875 C 2.6875 -4.664062 2.425781 -4.765625 2.125 -4.765625 C 1.8125 -4.765625 1.546875 -4.664062 1.328125 -4.46875 C 1.109375 -4.269531 0.9375 -3.988281 0.8125 -3.625 C 0.695312 -3.269531 0.640625 -2.851562 0.640625 -2.375 Z M 0.640625 -2.375 "/></g></g></g><g fill="#ecede8" fill-opacity="1"><g transform="translate(23.021709, 5.59296)"><g><path d="M 1.15625 0 L 0.09375 0 L 0.09375 -0.015625 L 0.4375 -0.1875 L 0.4375 -4.578125 L 0.09375 -4.75 L 0.09375 -4.765625 L 0.84375 -4.765625 L 3.125 -0.796875 L 2.890625 -4.578125 L 2.546875 -4.75 L 2.546875 -4.765625 L 3.609375 -4.765625 L 3.609375 -4.75 L 3.265625 -4.578125 L 3.265625 0 L 3.171875 0 L 0.53125 -4.546875 L 0.8125 -0.1875 L 1.15625 -0.015625 Z M 1.15625 0 "/></g></g></g><g fill="#ecede8" fill-opacity="1"><g transform="translate(5.49115, 31.42406)"><g><path d="M 0.859375 0.03125 C 0.703125 0.03125 0.566406 -0.00390625 0.453125 -0.078125 C 0.347656 -0.148438 0.265625 -0.242188 0.203125 -0.359375 C 0.140625 -0.484375 0.109375 -0.628906 0.109375 -0.796875 C 0.109375 -0.960938 0.140625 -1.109375 0.203125 -1.234375 C 0.265625 -1.359375 0.351562 -1.453125 0.46875 -1.515625 C 0.582031 -1.585938 0.722656 -1.625 0.890625 -1.625 C 1.066406 -1.625 1.210938 -1.578125 1.328125 -1.484375 C 1.453125 -1.398438 1.53125 -1.285156 1.5625 -1.140625 L 1.34375 -1.140625 C 1.320312 -1.234375 1.269531 -1.304688 1.1875 -1.359375 C 1.101562 -1.421875 1.003906 -1.453125 0.890625 -1.453125 C 0.765625 -1.453125 0.660156 -1.425781 0.578125 -1.375 C 0.492188 -1.320312 0.425781 -1.242188 0.375 -1.140625 C 0.320312 -1.046875 0.296875 -0.929688 0.296875 -0.796875 C 0.296875 -0.660156 0.316406 -0.539062 0.359375 -0.4375 C 0.410156 -0.34375 0.476562 -0.269531 0.5625 -0.21875 C 0.65625 -0.164062 0.753906 -0.140625 0.859375 -0.140625 C 1.035156 -0.140625 1.164062 -0.1875 1.25 -0.28125 C 1.332031 -0.382812 1.378906 -0.523438 1.390625 -0.703125 L 0.9375 -0.703125 L 0.9375 -0.859375 L 1.59375 -0.859375 L 1.59375 0 L 1.421875 0 L 1.40625 -0.265625 C 1.34375 -0.171875 1.269531 -0.0976562 1.1875 -0.046875 C 1.101562 0.00390625 0.992188 0.03125 0.859375 0.03125 Z M 0.859375 0.03125 "/></g></g></g><g fill="#ecede8" fill-opacity="1"><g transform="translate(7.333196, 31.42406)"><g><path d="M 0.0625 0 L 0.65625 -1.59375 L 0.859375 -1.59375 L 1.453125 0 L 1.25 0 L 1.09375 -0.40625 L 0.421875 -0.40625 L 0.265625 0 Z M 0.46875 -0.5625 L 1.046875 -0.5625 L 0.75 -1.359375 Z M 0.46875 -0.5625 "/></g></g></g><g fill="#ecede8" fill-opacity="1"><g transform="translate(8.963235, 31.42406)"><g><path d="M 0.171875 0 L 0.171875 -1.59375 L 0.359375 -1.59375 L 0.359375 -0.15625 L 1.109375 -0.15625 L 1.109375 0 Z M 0.171875 0 "/></g></g></g><g fill="#ecede8" fill-opacity="1"><g transform="translate(10.276402, 31.42406)"><g><path d="M 0.171875 0 L 0.171875 -1.59375 L 1.15625 -1.59375 L 1.15625 -1.4375 L 0.359375 -1.4375 L 0.359375 -0.890625 L 1.09375 -0.890625 L 1.09375 -0.734375 L 0.359375 -0.734375 L 0.359375 -0.15625 L 1.15625 -0.15625 L 1.15625 0 Z M 0.171875 0 "/></g></g></g><g fill="#ecede8" fill-opacity="1"><g transform="translate(11.678476, 31.42406)"><g><path d="M 0.171875 0 L 0.171875 -1.59375 L 0.6875 -1.59375 C 0.8125 -1.59375 0.910156 -1.570312 0.984375 -1.53125 C 1.066406 -1.488281 1.125 -1.429688 1.15625 -1.359375 C 1.195312 -1.296875 1.21875 -1.21875 1.21875 -1.125 C 1.21875 -1.03125 1.191406 -0.941406 1.140625 -0.859375 C 1.085938 -0.773438 1.003906 -0.71875 0.890625 -0.6875 L 1.234375 0 L 1.015625 0 L 0.6875 -0.65625 L 0.359375 -0.65625 L 0.359375 0 Z M 0.359375 -0.8125 L 0.671875 -0.8125 C 0.796875 -0.8125 0.882812 -0.835938 0.9375 -0.890625 C 1 -0.953125 1.03125 -1.03125 1.03125 -1.125 C 1.03125 -1.21875 1 -1.289062 0.9375 -1.34375 C 0.882812 -1.40625 0.796875 -1.4375 0.671875 -1.4375 L 0.359375 -1.4375 Z M 0.359375 -0.8125 "/></g></g></g><g fill="#ecede8" fill-opacity="1"><g transform="translate(13.146661, 31.42406)"><g><path d="M 0.171875 0 L 0.171875 -1.59375 L 0.359375 -1.59375 L 0.359375 0 Z M 0.171875 0 "/></g></g></g><g fill="#ecede8" fill-opacity="1"><g transform="translate(13.791889, 31.42406)"><g><path d="M 0.0625 0 L 0.65625 -1.59375 L 0.859375 -1.59375 L 1.453125 0 L 1.25 0 L 1.09375 -0.40625 L 0.421875 -0.40625 L 0.265625 0 Z M 0.46875 -0.5625 L 1.046875 -0.5625 L 0.75 -1.359375 Z M 0.46875 -0.5625 "/></g></g></g><g fill="#ecede8" fill-opacity="1"><g transform="translate(15.421927, 31.42406)"><g/></g></g><g fill="#ecede8" fill-opacity="1"><g transform="translate(16.142384, 31.42406)"><g><path d="M 0.171875 0 L 0.171875 -1.59375 L 0.65625 -1.59375 C 0.9375 -1.59375 1.144531 -1.519531 1.28125 -1.375 C 1.414062 -1.238281 1.484375 -1.046875 1.484375 -0.796875 C 1.484375 -0.546875 1.414062 -0.347656 1.28125 -0.203125 C 1.144531 -0.0664062 0.9375 0 0.65625 0 Z M 0.359375 -0.15625 L 0.65625 -0.15625 C 0.8125 -0.15625 0.929688 -0.179688 1.015625 -0.234375 C 1.109375 -0.285156 1.175781 -0.359375 1.21875 -0.453125 C 1.257812 -0.546875 1.28125 -0.660156 1.28125 -0.796875 C 1.28125 -0.929688 1.257812 -1.046875 1.21875 -1.140625 C 1.175781 -1.234375 1.109375 -1.304688 1.015625 -1.359375 C 0.929688 -1.410156 0.8125 -1.4375 0.65625 -1.4375 L 0.359375 -1.4375 Z M 0.359375 -0.15625 "/></g></g></g><g fill="#ecede8" fill-opacity="1"><g transform="translate(17.845372, 31.42406)"><g><path d="M 0.171875 0 L 0.171875 -1.59375 L 1.15625 -1.59375 L 1.15625 -1.4375 L 0.359375 -1.4375 L 0.359375 -0.890625 L 1.09375 -0.890625 L 1.09375 -0.734375 L 0.359375 -0.734375 L 0.359375 -0.15625 L 1.15625 -0.15625 L 1.15625 0 Z M 0.171875 0 "/></g></g></g><g fill="#ecede8" fill-opacity="1"><g transform="translate(19.247445, 31.42406)"><g/></g></g><g fill="#ecede8" fill-opacity="1"><g transform="translate(19.967901, 31.42406)"><g><path d="M 0.171875 0 L 0.171875 -1.59375 L 1.140625 -1.59375 L 1.140625 -1.4375 L 0.359375 -1.4375 L 0.359375 -0.875 L 1.03125 -0.875 L 1.03125 -0.71875 L 0.359375 -0.71875 L 0.359375 0 Z M 0.171875 0 "/></g></g></g><g fill="#ecede8" fill-opacity="1"><g transform="translate(21.301584, 31.42406)"><g><path d="M 0.890625 0.03125 C 0.734375 0.03125 0.597656 -0.00390625 0.484375 -0.078125 C 0.367188 -0.148438 0.273438 -0.242188 0.203125 -0.359375 C 0.140625 -0.484375 0.109375 -0.628906 0.109375 -0.796875 C 0.109375 -0.960938 0.140625 -1.109375 0.203125 -1.234375 C 0.273438 -1.359375 0.367188 -1.453125 0.484375 -1.515625 C 0.597656 -1.585938 0.734375 -1.625 0.890625 -1.625 C 1.046875 -1.625 1.179688 -1.585938 1.296875 -1.515625 C 1.421875 -1.453125 1.515625 -1.359375 1.578125 -1.234375 C 1.648438 -1.109375 1.6875 -0.960938 1.6875 -0.796875 C 1.6875 -0.628906 1.648438 -0.484375 1.578125 -0.359375 C 1.515625 -0.242188 1.421875 -0.148438 1.296875 -0.078125 C 1.179688 -0.00390625 1.046875 0.03125 0.890625 0.03125 Z M 0.890625 -0.140625 C 1.003906 -0.140625 1.109375 -0.164062 1.203125 -0.21875 C 1.296875 -0.269531 1.363281 -0.34375 1.40625 -0.4375 C 1.457031 -0.539062 1.484375 -0.660156 1.484375 -0.796875 C 1.484375 -0.929688 1.457031 -1.046875 1.40625 -1.140625 C 1.363281 -1.242188 1.296875 -1.320312 1.203125 -1.375 C 1.109375 -1.425781 1.003906 -1.453125 0.890625 -1.453125 C 0.773438 -1.453125 0.671875 -1.425781 0.578125 -1.375 C 0.492188 -1.320312 0.425781 -1.242188 0.375 -1.140625 C 0.320312 -1.046875 0.296875 -0.929688 0.296875 -0.796875 C 0.296875 -0.660156 0.320312 -0.539062 0.375 -0.4375 C 0.425781 -0.34375 0.492188 -0.269531 0.578125 -0.21875 C 0.671875 -0.164062 0.773438 -0.140625 0.890625 -0.140625 Z M 0.890625 -0.140625 "/></g></g></g><g fill="#ecede8" fill-opacity="1"><g transform="translate(23.205181, 31.42406)"><g><path d="M 0.546875 0 L 0.546875 -1.4375 L 0.0625 -1.4375 L 0.0625 -1.59375 L 1.21875 -1.59375 L 1.21875 -1.4375 L 0.734375 -1.4375 L 0.734375 0 Z M 0.546875 0 "/></g></g></g><g fill="#ecede8" fill-opacity="1"><g transform="translate(24.598136, 31.42406)"><g><path d="M 0.890625 0.03125 C 0.734375 0.03125 0.597656 -0.00390625 0.484375 -0.078125 C 0.367188 -0.148438 0.273438 -0.242188 0.203125 -0.359375 C 0.140625 -0.484375 0.109375 -0.628906 0.109375 -0.796875 C 0.109375 -0.960938 0.140625 -1.109375 0.203125 -1.234375 C 0.273438 -1.359375 0.367188 -1.453125 0.484375 -1.515625 C 0.597656 -1.585938 0.734375 -1.625 0.890625 -1.625 C 1.046875 -1.625 1.179688 -1.585938 1.296875 -1.515625 C 1.421875 -1.453125 1.515625 -1.359375 1.578125 -1.234375 C 1.648438 -1.109375 1.6875 -0.960938 1.6875 -0.796875 C 1.6875 -0.628906 1.648438 -0.484375 1.578125 -0.359375 C 1.515625 -0.242188 1.421875 -0.148438 1.296875 -0.078125 C 1.179688 -0.00390625 1.046875 0.03125 0.890625 0.03125 Z M 0.890625 -0.140625 C 1.003906 -0.140625 1.109375 -0.164062 1.203125 -0.21875 C 1.296875 -0.269531 1.363281 -0.34375 1.40625 -0.4375 C 1.457031 -0.539062 1.484375 -0.660156 1.484375 -0.796875 C 1.484375 -0.929688 1.457031 -1.046875 1.40625 -1.140625 C 1.363281 -1.242188 1.296875 -1.320312 1.203125 -1.375 C 1.109375 -1.425781 1.003906 -1.453125 0.890625 -1.453125 C 0.773438 -1.453125 0.671875 -1.425781 0.578125 -1.375 C 0.492188 -1.320312 0.425781 -1.242188 0.375 -1.140625 C 0.320312 -1.046875 0.296875 -0.929688 0.296875 -0.796875 C 0.296875 -0.660156 0.320312 -0.539062 0.375 -0.4375 C 0.425781 -0.34375 0.492188 -0.269531 0.578125 -0.21875 C 0.671875 -0.164062 0.773438 -0.140625 0.890625 -0.140625 Z M 0.890625 -0.140625 "/></g></g></g><g fill="#ecede8" fill-opacity="1"><g transform="translate(26.501733, 31.42406)"><g><path d="M 0.671875 0.03125 C 0.554688 0.03125 0.453125 0.0078125 0.359375 -0.03125 C 0.273438 -0.0703125 0.207031 -0.128906 0.15625 -0.203125 C 0.113281 -0.285156 0.09375 -0.378906 0.09375 -0.484375 L 0.296875 -0.484375 C 0.296875 -0.421875 0.3125 -0.363281 0.34375 -0.3125 C 0.375 -0.257812 0.414062 -0.21875 0.46875 -0.1875 C 0.519531 -0.15625 0.585938 -0.140625 0.671875 -0.140625 C 0.785156 -0.140625 0.867188 -0.164062 0.921875 -0.21875 C 0.984375 -0.269531 1.015625 -0.332031 1.015625 -0.40625 C 1.015625 -0.46875 1 -0.519531 0.96875 -0.5625 C 0.945312 -0.601562 0.910156 -0.632812 0.859375 -0.65625 C 0.816406 -0.675781 0.765625 -0.695312 0.703125 -0.71875 C 0.640625 -0.738281 0.578125 -0.757812 0.515625 -0.78125 C 0.390625 -0.820312 0.296875 -0.875 0.234375 -0.9375 C 0.179688 -1 0.15625 -1.082031 0.15625 -1.1875 C 0.15625 -1.269531 0.175781 -1.34375 0.21875 -1.40625 C 0.257812 -1.476562 0.316406 -1.53125 0.390625 -1.5625 C 0.460938 -1.601562 0.550781 -1.625 0.65625 -1.625 C 0.757812 -1.625 0.847656 -1.601562 0.921875 -1.5625 C 0.992188 -1.53125 1.050781 -1.476562 1.09375 -1.40625 C 1.132812 -1.34375 1.15625 -1.269531 1.15625 -1.1875 L 0.96875 -1.1875 C 0.96875 -1.226562 0.953125 -1.269531 0.921875 -1.3125 C 0.898438 -1.351562 0.863281 -1.382812 0.8125 -1.40625 C 0.769531 -1.4375 0.71875 -1.453125 0.65625 -1.453125 C 0.5625 -1.460938 0.488281 -1.441406 0.4375 -1.390625 C 0.382812 -1.347656 0.359375 -1.285156 0.359375 -1.203125 C 0.359375 -1.140625 0.375 -1.085938 0.40625 -1.046875 C 0.445312 -1.015625 0.503906 -0.984375 0.578125 -0.953125 C 0.648438 -0.929688 0.726562 -0.90625 0.8125 -0.875 C 0.894531 -0.84375 0.960938 -0.804688 1.015625 -0.765625 C 1.078125 -0.734375 1.125 -0.6875 1.15625 -0.625 C 1.195312 -0.570312 1.21875 -0.503906 1.21875 -0.421875 C 1.21875 -0.335938 1.195312 -0.257812 1.15625 -0.1875 C 1.113281 -0.125 1.050781 -0.0703125 0.96875 -0.03125 C 0.894531 0.0078125 0.796875 0.03125 0.671875 0.03125 Z M 0.671875 0.03125 "/></g></g></g></svg>