<svg xmlns="http://www.w3.org/2000/svg" xmlns:xlink="http://www.w3.org/1999/xlink" width="45" zoomAndPan="magnify" viewBox="0 0 33.75 33.749998" height="45" preserveAspectRatio="xMidYMid meet" version="1.0"><defs><clipPath id="d0ef3e63ac"><path d="M 1.257812 1.257812 L 32.523438 1.257812 L 32.523438 32.523438 L 1.257812 32.523438 Z M 1.257812 1.257812 " clip-rule="nonzero"/></clipPath></defs><g clip-path="url(#d0ef3e63ac)"><path fill="#ecede8" d="M 27.476562 1.257812 L 6.023438 1.257812 C 5.710938 1.257812 5.402344 1.289062 5.09375 1.347656 C 4.789062 1.410156 4.488281 1.5 4.199219 1.621094 C 3.910156 1.742188 3.636719 1.886719 3.375 2.0625 C 3.117188 2.234375 2.875 2.433594 2.652344 2.652344 C 2.433594 2.875 2.234375 3.117188 2.0625 3.375 C 1.886719 3.636719 1.742188 3.910156 1.621094 4.199219 C 1.5 4.488281 1.410156 4.789062 1.347656 5.09375 C 1.289062 5.402344 1.257812 5.710938 1.257812 6.023438 L 1.257812 27.476562 C 1.257812 27.789062 1.289062 28.101562 1.347656 28.40625 C 1.410156 28.714844 1.5 29.011719 1.621094 29.300781 C 1.742188 29.589844 1.886719 29.867188 2.0625 30.125 C 2.234375 30.386719 2.433594 30.625 2.652344 30.847656 C 2.875 31.070312 3.117188 31.265625 3.375 31.441406 C 3.636719 31.613281 3.910156 31.761719 4.199219 31.882812 C 4.488281 32 4.789062 32.089844 5.09375 32.152344 C 5.402344 32.214844 5.710938 32.246094 6.023438 32.246094 L 27.476562 32.246094 C 27.789062 32.246094 28.101562 32.214844 28.40625 32.152344 C 28.714844 32.089844 29.011719 32 29.300781 31.882812 C 29.589844 31.761719 29.867188 31.613281 30.125 31.441406 C 30.386719 31.265625 30.625 31.070312 30.847656 30.847656 C 31.070312 30.625 31.265625 30.386719 31.441406 30.125 C 31.613281 29.867188 31.761719 29.589844 31.882812 29.300781 C 32 29.011719 32.089844 28.714844 32.152344 28.40625 C 32.214844 28.101562 32.246094 27.789062 32.246094 27.476562 L 32.246094 6.023438 C 32.246094 5.710938 32.214844 5.402344 32.152344 5.09375 C 32.089844 4.789062 32 4.488281 31.882812 4.199219 C 31.761719 3.910156 31.613281 3.636719 31.441406 3.375 C 31.265625 3.117188 31.070312 2.875 30.847656 2.652344 C 30.625 2.433594 30.386719 2.234375 30.125 2.0625 C 29.867188 1.886719 29.589844 1.742188 29.300781 1.621094 C 29.011719 1.5 28.714844 1.410156 28.40625 1.347656 C 28.101562 1.289062 27.789062 1.257812 27.476562 1.257812 Z M 27.476562 10.195312 C 27.476562 10.46875 27.453125 10.742188 27.398438 11.007812 C 27.34375 11.277344 27.265625 11.539062 27.160156 11.792969 C 27.054688 12.046875 26.925781 12.285156 26.773438 12.511719 C 26.621094 12.742188 26.449219 12.953125 26.257812 13.144531 C 26.0625 13.339844 25.851562 13.511719 25.625 13.664062 C 25.394531 13.816406 25.15625 13.945312 24.902344 14.050781 C 24.648438 14.15625 24.390625 14.234375 24.121094 14.285156 C 23.851562 14.339844 23.582031 14.367188 23.304688 14.367188 C 23.03125 14.367188 22.761719 14.339844 22.492188 14.285156 C 22.222656 14.234375 21.964844 14.15625 21.710938 14.050781 C 21.457031 13.945312 21.214844 13.816406 20.988281 13.664062 C 20.761719 13.511719 20.550781 13.339844 20.355469 13.144531 C 20.164062 12.953125 19.988281 12.742188 19.835938 12.511719 C 19.6875 12.285156 19.558594 12.046875 19.453125 11.792969 C 19.347656 11.539062 19.269531 11.277344 19.214844 11.007812 C 19.160156 10.742188 19.132812 10.46875 19.132812 10.195312 C 19.132812 9.921875 19.160156 9.648438 19.214844 9.382812 C 19.269531 9.113281 19.347656 8.851562 19.453125 8.597656 C 19.558594 8.347656 19.6875 8.105469 19.835938 7.878906 C 19.988281 7.648438 20.164062 7.4375 20.355469 7.246094 C 20.550781 7.050781 20.761719 6.878906 20.988281 6.726562 C 21.214844 6.574219 21.457031 6.445312 21.710938 6.339844 C 21.964844 6.238281 22.222656 6.15625 22.492188 6.105469 C 22.761719 6.050781 23.03125 6.023438 23.304688 6.023438 C 23.582031 6.023438 23.851562 6.050781 24.121094 6.105469 C 24.386719 6.160156 24.648438 6.238281 24.902344 6.34375 C 25.15625 6.449219 25.394531 6.578125 25.621094 6.726562 C 25.851562 6.878906 26.0625 7.054688 26.253906 7.246094 C 26.449219 7.441406 26.621094 7.652344 26.773438 7.878906 C 26.925781 8.105469 27.054688 8.347656 27.160156 8.601562 C 27.265625 8.851562 27.34375 9.113281 27.398438 9.382812 C 27.449219 9.652344 27.476562 9.921875 27.476562 10.195312 Z M 29.863281 27.476562 C 29.863281 27.792969 29.800781 28.097656 29.679688 28.390625 C 29.558594 28.683594 29.386719 28.9375 29.164062 29.164062 C 28.9375 29.386719 28.683594 29.558594 28.390625 29.679688 C 28.097656 29.800781 27.792969 29.863281 27.476562 29.863281 L 6.023438 29.863281 C 5.707031 29.863281 5.402344 29.800781 5.113281 29.679688 C 4.820312 29.558594 4.5625 29.386719 4.339844 29.164062 C 4.117188 28.9375 3.941406 28.683594 3.820312 28.390625 C 3.699219 28.097656 3.640625 27.792969 3.640625 27.476562 L 3.640625 26.660156 L 8.765625 19.335938 C 8.988281 19.015625 9.269531 18.765625 9.617188 18.585938 C 9.960938 18.40625 10.328125 18.316406 10.71875 18.320312 L 10.746094 18.320312 C 11.140625 18.324219 11.511719 18.417969 11.859375 18.605469 C 12.203125 18.792969 12.488281 19.054688 12.703125 19.382812 L 16.949219 25.753906 C 17.171875 26.085938 17.480469 26.261719 17.878906 26.285156 C 18.273438 26.300781 18.601562 26.15625 18.859375 25.855469 L 22.109375 21.957031 C 22.582031 21.386719 23.1875 21.101562 23.925781 21.097656 C 24.671875 21.066406 25.28125 21.34375 25.75 21.929688 L 29.863281 26.726562 Z M 29.863281 27.476562 " fill-opacity="1" fill-rule="nonzero"/></g></svg>