<svg xmlns="http://www.w3.org/2000/svg" xmlns:xlink="http://www.w3.org/1999/xlink" width="45" zoomAndPan="magnify" viewBox="0 0 33.75 33.749998" height="45" preserveAspectRatio="xMidYMid meet" version="1.0"><defs><clipPath id="d6a40e7cbe"><path d="M 4.894531 0.644531 L 28.714844 0.644531 L 28.714844 32.65625 L 4.894531 32.65625 Z M 4.894531 0.644531 " clip-rule="nonzero"/></clipPath></defs><g clip-path="url(#d6a40e7cbe)"><path fill="#202733" d="M 28.550781 2.332031 L 28.550781 31 C 28.546875 31.324219 28.457031 31.625 28.28125 31.898438 C 28.101562 32.171875 27.867188 32.375 27.574219 32.515625 C 27.277344 32.652344 26.96875 32.699219 26.648438 32.660156 C 26.324219 32.621094 26.039062 32.5 25.785156 32.296875 L 16.746094 24.761719 L 7.707031 32.296875 C 7.457031 32.5 7.167969 32.621094 6.84375 32.660156 C 6.523438 32.703125 6.214844 32.652344 5.917969 32.515625 C 5.625 32.375 5.390625 32.171875 5.214844 31.898438 C 5.035156 31.625 4.945312 31.324219 4.941406 31 L 4.941406 2.332031 C 4.941406 2.109375 4.984375 1.890625 5.070312 1.6875 C 5.15625 1.480469 5.277344 1.296875 5.433594 1.136719 C 5.59375 0.980469 5.777344 0.859375 5.984375 0.773438 C 6.1875 0.6875 6.40625 0.644531 6.628906 0.644531 L 26.863281 0.644531 C 27.089844 0.644531 27.304688 0.6875 27.511719 0.773438 C 27.71875 0.859375 27.898438 0.980469 28.058594 1.136719 C 28.214844 1.296875 28.339844 1.480469 28.421875 1.6875 C 28.507812 1.890625 28.550781 2.109375 28.550781 2.332031 Z M 28.550781 2.332031 " fill-opacity="1" fill-rule="nonzero"/></g></svg>